Input #0, video4linux2,v4l2, from '/dev/video0':
  Duration: N/A, start: 1607587578.332053, bitrate: N/A
    Stream #0:0: Video: h264 (High), yuv420p(progressive), 1024x768, 30 fps, 30 tbr, 1000k tbn, 2000k tbc
Output #0, mp4, to 'h264_mp4.mp4':
  Metadata:
    encoder         : Lavf58.64.100
    Stream #0:0: Video: h264 (High) (avc1 / 0x31637661), yuv420p(progressive), 1024x768, q=2-31, 30 fps, 30 tbr, 1000k tbn, 1000k tbc
Stream mapping:
  Stream #0:0 -> #0:0 (copy)
Press [q] to stop, [?] for help
[mp4 @ 0x2e034b0] Timestamps are unset in a packet for stream 0. This is deprecated and will stop working in the future. Fix your code to set the timestamps properly
[mp4 @ 0x2e034b0] Non-monotonous DTS in output stream 0:0; previous: 0, current: 0; changing to 1. This may result in incorrect timestamps in the output file.
frame=   28 fps=0.0 q=-1.0 size=     512kB time=00:00:00.86 bitrate=4827.2kbits/s speed=1.73x    frame=   43 fps= 43 q=-1.0 size=     768kB time=00:00:01.37 bitrate=4591.4kbits/s speed=1.37x    frame=   58 fps= 38 q=-1.0 size=    1280kB time=00:00:01.87 bitrate=5579.7kbits/s speed=1.25x    frame=   73 fps= 36 q=-1.0 size=    1536kB time=00:00:02.36 bitrate=5310.5kbits/s speed=1.18x    frame=   88 fps= 35 q=-1.0 size=    1792kB time=00:00:02.88 bitrate=5096.8kbits/s speed=1.15x    frame=  104 fps= 34 q=-1.0 size=    2304kB time=00:00:03.40 bitrate=5537.4kbits/s speed=1.13x    frame=  119 fps= 34 q=-1.0 size=    2560kB time=00:00:03.91 bitrate=5363.2kbits/s speed=1.11x    frame=  134 fps= 33 q=-1.0 size=    3072kB time=00:00:04.40 bitrate=5708.6kbits/s speed=1.09x    frame=  149 fps= 33 q=-1.0 size=    3328kB time=00:00:04.91 bitrate=5550.7kbits/s speed=1.08x    frame=  164 fps= 33 q=-1.0 size=    3584kB time=00:00:05.41 bitrate=5424.6kbits/s speed=1.07x    frame=  179 fps= 32 q=-1.0 size=    4096kB time=00:00:05.91 bitrate=5676.2kbits/s speed=1.07x    frame=  194 fps= 32 q=-1.0 size=    4352kB time=00:00:06.40 bitrate=5568.5kbits/s speed=1.06x    frame=  210 fps= 32 q=-1.0 size=    4608kB time=00:00:06.94 bitrate=5436.7kbits/s speed=1.06x    frame=  225 fps= 32 q=-1.0 size=    4864kB time=00:00:07.44 bitrate=5353.1kbits/s speed=1.06x    frame=  240 fps= 32 q=-1.0 size=    5120kB time=00:00:07.94 bitrate=5280.7kbits/s speed=1.05x    frame=  255 fps= 32 q=-1.0 size=    5376kB time=00:00:08.44 bitrate=5216.4kbits/s speed=1.05x    frame=  270 fps= 31 q=-1.0 size=    5632kB time=00:00:08.94 bitrate=5160.7kbits/s speed=1.04x    frame=  285 fps= 31 q=-1.0 size=    6144kB time=00:00:09.44 bitrate=5330.7kbits/s speed=1.04x    frame=  301 fps= 31 q=-1.0 size=    6400kB time=00:00:09.97 bitrate=5254.1kbits/s speed=1.04x    frame=  316 fps= 31 q=-1.0 size=    6656kB time=00:00:10.47 bitrate=5206.3kbits/s speed=1.04x    frame=  331 fps= 31 q=-1.0 size=    6912kB time=00:00:10.98 bitrate=5156.9kbits/s speed=1.04x    frame=  346 fps= 31 q=-1.0 size=    7424kB time=00:00:11.47 bitrate=5300.7kbits/s speed=1.03x    frame=  361 fps= 31 q=-1.0 size=    7680kB time=00:00:11.97 bitrate=5252.4kbits/s speed=1.03x    frame=  377 fps= 31 q=-1.0 size=    7936kB time=00:00:12.50 bitrate=5198.9kbits/s speed=1.03x    frame=  392 fps= 31 q=-1.0 size=    8448kB time=00:00:13.01 bitrate=5319.1kbits/s speed=1.03x    frame=  407 fps= 31 q=-1.0 size=    8704kB time=00:00:13.50 bitrate=5280.6kbits/s speed=1.03x    frame=  422 fps= 31 q=-1.0 size=    9216kB time=00:00:14.00 bitrate=5391.5kbits/s speed=1.03x    frame=  437 fps= 31 q=-1.0 size=    9472kB time=00:00:14.50 bitrate=5351.1kbits/s speed=1.03x    frame=  452 fps= 31 q=-1.0 size=    9984kB time=00:00:15.01 bitrate=5448.6kbits/s speed=1.03x    frame=  467 fps= 31 q=-1.0 size=   10240kB time=00:00:15.50 bitrate=5408.8kbits/s speed=1.02x    frame=  483 fps= 31 q=-1.0 size=   10752kB time=00:00:16.03 bitrate=5492.8kbits/s speed=1.02x    frame=  498 fps= 31 q=-1.0 size=   11008kB time=00:00:16.54 bitrate=5452.0kbits/s speed=1.02x    frame=  513 fps= 31 q=-1.0 size=   11264kB time=00:00:17.04 bitrate=5415.1kbits/s speed=1.02x    frame=  528 fps= 31 q=-1.0 size=   11520kB time=00:00:17.53 bitrate=5380.6kbits/s speed=1.02x    frame=  543 fps= 31 q=-1.0 size=   12032kB time=00:00:18.03 bitrate=5465.3kbits/s speed=1.02x    frame=  558 fps= 31 q=-1.0 size=   12288kB time=00:00:18.53 bitrate=5431.1kbits/s speed=1.02x    frame=  573 fps= 31 q=-1.0 size=   12544kB time=00:00:19.03 bitrate=5398.6kbits/s speed=1.02x    frame=  588 fps= 31 q=-1.0 size=   13056kB time=00:00:19.53 bitrate=5475.0kbits/s speed=1.02x    frame=  603 fps= 31 q=-1.0 size=   13312kB time=00:00:20.03 bitrate=5442.7kbits/s speed=1.02x    frame=  618 fps= 31 q=-1.0 size=   13824kB time=00:00:20.53 bitrate=5515.0kbits/s speed=1.02x    frame=  633 fps= 31 q=-1.0 size=   14080kB time=00:00:21.03 bitrate=5483.5kbits/s speed=1.02x    frame=  649 fps= 31 q=-1.0 size=   14592kB time=00:00:21.56 bitrate=5542.3kbits/s speed=1.02x    frame=  664 fps= 31 q=-1.0 size=   14848kB time=00:00:22.07 bitrate=5510.8kbits/s speed=1.02x    frame=  679 fps= 31 q=-1.0 size=   15360kB time=00:00:22.57 bitrate=5574.7kbits/s speed=1.02x    frame=  694 fps= 31 q=-1.0 size=   15616kB time=00:00:23.06 bitrate=5545.8kbits/s speed=1.02x    frame=  709 fps= 31 q=-1.0 size=   15872kB time=00:00:23.57 bitrate=5514.2kbits/s speed=1.02x    frame=  724 fps= 31 q=-1.0 size=   16384kB time=00:00:24.07 bitrate=5574.5kbits/s speed=1.02x    frame=  739 fps= 31 q=-1.0 size=   16640kB time=00:00:24.57 bitrate=5547.0kbits/s speed=1.02x    frame=  755 fps= 31 q=-1.0 size=   16896kB time=00:00:25.10 bitrate=5513.3kbits/s speed=1.02x    frame=  770 fps= 31 q=-1.0 size=   17152kB time=00:00:25.60 bitrate=5487.1kbits/s speed=1.02x    frame=  785 fps= 31 q=-1.0 size=   17664kB time=00:00:26.10 bitrate=5542.7kbits/s speed=1.02x    frame=  800 fps= 30 q=-1.0 size=   17920kB time=00:00:26.59 bitrate=5519.3kbits/s speed=1.01x    frame=  815 fps= 30 q=-1.0 size=   18176kB time=00:00:27.10 bitrate=5493.3kbits/s speed=1.01x    frame=  830 fps= 30 q=-1.0 size=   18432kB time=00:00:27.60 bitrate=5469.6kbits/s speed=1.01x    frame=  846 fps= 30 q=-1.0 size=   18688kB time=00:00:28.13 bitrate=5441.2kbits/s speed=1.01x    frame=  861 fps= 30 q=-1.0 size=   18944kB time=00:00:28.63 bitrate=5419.2kbits/s speed=1.01x    frame=  876 fps= 30 q=-1.0 size=   19200kB time=00:00:29.13 bitrate=5398.1kbits/s speed=1.01x    frame=  891 fps= 30 q=-1.0 size=   19456kB time=00:00:29.63 bitrate=5378.0kbits/s speed=1.01x    frame=  906 fps= 30 q=-1.0 size=   19968kB time=00:00:30.14 bitrate=5427.1kbits/s speed=1.01x    frame=  922 fps= 30 q=-1.0 size=   20224kB time=00:00:30.67 bitrate=5401.6kbits/s speed=1.01x    frame=  937 fps= 30 q=-1.0 size=   20480kB time=00:00:31.17 bitrate=5382.1kbits/s speed=1.01x    frame=  952 fps= 30 q=-1.0 size=   20992kB time=00:00:31.66 bitrate=5430.1kbits/s speed=1.01x    frame=  967 fps= 30 q=-1.0 size=   21248kB time=00:00:32.17 bitrate=5409.9kbits/s speed=1.01x    frame=  982 fps= 30 q=-1.0 size=   21504kB time=00:00:32.66 bitrate=5392.3kbits/s speed=1.01x    frame=  997 fps= 30 q=-1.0 size=   22016kB time=00:00:33.17 bitrate=5436.6kbits/s speed=1.01x    frame= 1012 fps= 30 q=-1.0 size=   22272kB time=00:00:33.66 bitrate=5419.3kbits/s speed=1.01x    frame= 1027 fps= 30 q=-1.0 size=   22784kB time=00:00:34.16 bitrate=5463.1kbits/s speed=1.01x    frame= 1043 fps= 30 q=-1.0 size=   23040kB time=00:00:34.70 bitrate=5438.4kbits/s speed=1.01x    frame= 1058 fps= 30 q=-1.0 size=   23552kB time=00:00:35.20 bitrate=5480.3kbits/s speed=1.01x    frame= 1073 fps= 30 q=-1.0 size=   23808kB time=00:00:35.70 bitrate=5462.6kbits/s speed=1.01x    frame= 1088 fps= 30 q=-1.0 size=   24064kB time=00:00:36.20 bitrate=5445.1kbits/s speed=1.01x    frame= 1103 fps= 30 q=-1.0 size=   24576kB time=00:00:36.70 bitrate=5485.3kbits/s speed=1.01x    frame= 1118 fps= 30 q=-1.0 size=   24832kB time=00:00:37.19 bitrate=5468.6kbits/s speed=1.01x    frame= 1134 fps= 30 q=-1.0 size=   25088kB time=00:00:37.73 bitrate=5445.9kbits/s speed=1.01x    frame= 1149 fps= 30 q=-1.0 size=   25344kB time=00:00:38.23 bitrate=5429.5kbits/s speed=1.01x    frame= 1164 fps= 30 q=-1.0 size=   25856kB time=00:00:38.73 bitrate=5468.9kbits/s speed=1.01x    frame= 1179 fps= 30 q=-1.0 size=   26112kB time=00:00:39.24 bitrate=5451.2kbits/s speed=1.01x    frame= 1194 fps= 30 q=-1.0 size=   26368kB time=00:00:39.73 bitrate=5436.2kbits/s speed=1.01x    frame= 1209 fps= 30 q=-1.0 size=   26880kB time=00:00:40.23 bitrate=5473.0kbits/s speed=1.01x    frame= 1224 fps= 30 q=-1.0 size=   27136kB time=00:00:40.73 bitrate=5457.2kbits/s speed=1.01x    frame= 1240 fps= 30 q=-1.0 size=   27648kB time=00:00:41.26 bitrate=5488.1kbits/s speed=1.01x    frame= 1255 fps= 30 q=-1.0 size=   27904kB time=00:00:41.76 bitrate=5473.4kbits/s speed=1.01x    frame= 1270 fps= 30 q=-1.0 size=   28416kB time=00:00:42.27 bitrate=5506.8kbits/s speed=1.01x    frame= 1285 fps= 30 q=-1.0 size=   28672kB time=00:00:42.76 bitrate=5491.8kbits/s speed=1.01x    frame= 1300 fps= 30 q=-1.0 size=   28928kB time=00:00:43.26 bitrate=5477.6kbits/s speed=1.01x    frame= 1316 fps= 30 q=-1.0 size=   29440kB time=00:00:43.80 bitrate=5505.2kbits/s speed=1.01x    frame= 1331 fps= 30 q=-1.0 size=   29696kB time=00:00:44.30 bitrate=5491.1kbits/s speed=1.01x    frame= 1346 fps= 30 q=-1.0 size=   29952kB time=00:00:44.80 bitrate=5476.8kbits/s speed=1.01x    frame= 1361 fps= 30 q=-1.0 size=   30208kB time=00:00:45.29 bitrate=5462.9kbits/s speed=1.01x    frame= 1376 fps= 30 q=-1.0 size=   30720kB time=00:00:45.80 bitrate=5494.6kbits/s speed=1.01x    frame= 1391 fps= 30 q=-1.0 size=   30976kB time=00:00:46.30 bitrate=5479.8kbits/s speed=1.01x    frame= 1407 fps= 30 q=-1.0 size=   31232kB time=00:00:46.83 bitrate=5463.0kbits/s speed=1.01x    frame= 1422 fps= 30 q=-1.0 size=   31488kB time=00:00:47.33 bitrate=5449.3kbits/s speed=1.01x    frame= 1437 fps= 30 q=-1.0 size=   31744kB time=00:00:47.83 bitrate=5436.4kbits/s speed=1.01x    frame= 1452 fps= 30 q=-1.0 size=   32256kB time=00:00:48.33 bitrate=5467.2kbits/s speed=1.01x    frame= 1467 fps= 30 q=-1.0 size=   32512kB time=00:00:48.83 bitrate=5453.9kbits/s speed=1.01x    frame= 1483 fps= 30 q=-1.0 size=   32768kB time=00:00:49.36 bitrate=5437.6kbits/s speed=1.01x    frame= 1498 fps= 30 q=-1.0 size=   33024kB time=00:00:49.86 bitrate=5425.2kbits/s speed=1.01x    frame= 1513 fps= 30 q=-1.0 size=   33536kB time=00:00:50.36 bitrate=5454.9kbits/s speed=1.01x    frame= 1528 fps= 30 q=-1.0 size=   33792kB time=00:00:50.86 bitrate=5442.2kbits/s speed=1.01x    frame= 1543 fps= 30 q=-1.0 size=   34048kB time=00:00:51.36 bitrate=5430.2kbits/s speed=1.01x    frame= 1559 fps= 30 q=-1.0 size=   34560kB time=00:00:51.89 bitrate=5455.5kbits/s speed=1.01x    frame= 1574 fps= 30 q=-1.0 size=   34816kB time=00:00:52.39 bitrate=5443.2kbits/s speed=1.01x    frame= 1589 fps= 30 q=-1.0 size=   35328kB time=00:00:52.89 bitrate=5471.0kbits/s speed=1.01x    frame= 1604 fps= 30 q=-1.0 size=   35584kB time=00:00:53.39 bitrate=5459.2kbits/s speed=1.01x    frame= 1619 fps= 30 q=-1.0 size=   35840kB time=00:00:53.89 bitrate=5447.2kbits/s speed=1.01x    frame= 1634 fps= 30 q=-1.0 size=   36352kB time=00:00:54.39 bitrate=5474.5kbits/s speed=1.01x    frame= 1649 fps= 30 q=-1.0 size=   36608kB time=00:00:54.90 bitrate=5462.4kbits/s speed=1.01x    frame= 1665 fps= 30 q=-1.0 size=   37120kB time=00:00:55.42 bitrate=5486.0kbits/s speed=1.01x    frame= 1680 fps= 30 q=-1.0 size=   37376kB time=00:00:55.93 bitrate=5474.1kbits/s speed=1.01x    frame= 1695 fps= 30 q=-1.0 size=   37632kB time=00:00:56.43 bitrate=5462.7kbits/s speed=1.01x    frame= 1710 fps= 30 q=-1.0 size=   37888kB time=00:00:56.93 bitrate=5451.7kbits/s speed=1.01x    frame= 1726 fps= 30 q=-1.0 size=   38400kB time=00:00:57.47 bitrate=5473.4kbits/s speed=1.01x    frame= 1741 fps= 30 q=-1.0 size=   38656kB time=00:00:57.96 bitrate=5462.9kbits/s speed=1.01x    frame= 1756 fps= 30 q=-1.0 size=   39168kB time=00:00:58.46 bitrate=5487.8kbits/s speed=1.01x    frame= 1771 fps= 30 q=-1.0 size=   39424kB time=00:00:58.96 bitrate=5477.3kbits/s speed=1.01x    frame= 1786 fps= 30 q=-1.0 size=   39680kB time=00:00:59.47 bitrate=5465.6kbits/s speed=1.01x    frame= 1801 fps= 30 q=-1.0 size=   40192kB time=00:00:59.97 bitrate=5489.9kbits/s speed=1.01x    frame= 1802 fps= 30 q=-1.0 Lsize=   40324kB time=00:00:59.99 bitrate=5506.0kbits/s speed=1.01x    
video:40302kB audio:0kB subtitle:0kB other streams:0kB global headers:0kB muxing overhead: 0.056110%
